<?xml version="1.0" standalone="no"?>
<!DOCTYPE svg PUBLIC "-//W3C//DTD SVG 20010904//EN"
 "http://www.w3.org/TR/2001/REC-SVG-20010904/DTD/svg10.dtd">
<svg version="1.0" xmlns="http://www.w3.org/2000/svg"
 width="700.000000pt" height="700.000000pt" viewBox="0 0 700.000000 700.000000"
 preserveAspectRatio="xMidYMid meet">
<metadata>
Created by potrace 1.14, written by Peter Selinger 2001-2017
</metadata>
<g transform="translate(0.000000,700.000000) scale(0.100000,-0.100000)"
fill="#000000" stroke="none">
<path d="M4690 6990 c-119 -15 -158 -22 -244 -41 -239 -51 -466 -144 -671
-273 -44 -28 -84 -54 -90 -58 -5 -5 -46 -36 -90 -70 -174 -133 -375 -362 -493
-558 -127 -212 -238 -506 -267 -705 -3 -22 -11 -67 -17 -100 -16 -91 -17 -424
-2 -545 35 -275 120 -534 252 -768 80 -143 108 -184 218 -317 189 -229 413
-405 689 -540 114 -56 321 -134 395 -149 14 -3 71 -14 126 -25 156 -31 263
-39 459 -35 166 3 298 20 470 58 140 32 454 163 561 236 25 16 47 30 50 30 4
0 104 71 159 112 111 86 285 260 360 361 25 34 51 69 58 77 59 75 165 265 222
400 33 77 97 271 110 335 3 14 7 35 10 48 41 200 53 495 28 702 -53 437 -253
860 -561 1186 -203 216 -499 412 -767 509 -49 18 -99 36 -110 41 -24 10 -206
55 -255 63 -19 3 -66 11 -105 17 -82 13 -415 19 -495 9z"/>
<path d="M1259 3846 c-2 -2 -26 -6 -54 -10 -52 -6 -58 -7 -140 -26 -227 -50
-473 -184 -645 -352 -218 -211 -364 -500 -407 -808 -10 -69 -10 -316 0 -395
53 -433 330 -834 717 -1039 224 -118 439 -167 705 -162 416 9 784 183 1046
496 159 190 278 465 307 710 9 80 8 317 -1 385 -55 402 -276 757 -602 970
-237 155 -467 225 -761 231 -89 2 -163 2 -165 0z"/>
<path d="M4600 1743 c-353 -60 -610 -277 -710 -598 -30 -97 -35 -141 -34 -285
0 -95 5 -145 22 -210 55 -213 186 -396 367 -512 39 -25 72 -45 75 -46 3 0 25
-10 50 -21 25 -11 52 -21 60 -21 9 0 20 -4 25 -9 21 -19 191 -40 305 -36 393
11 709 261 811 640 32 117 32 347 1 459 -89 314 -311 536 -617 617 -77 20
-289 34 -355 22z"/>
</g>
</svg>
