<?xml version="1.0" standalone="no"?>
<!DOCTYPE svg PUBLIC "-//W3C//DTD SVG 20010904//EN"
 "http://www.w3.org/TR/2001/REC-SVG-20010904/DTD/svg10.dtd">
<svg version="1.0" xmlns="http://www.w3.org/2000/svg"
 width="700.000000pt" height="700.000000pt" viewBox="0 0 700.000000 700.000000"
 preserveAspectRatio="xMidYMid meet">
<metadata>
Created by potrace 1.14, written by Peter Selinger 2001-2017
</metadata>
<g transform="translate(0.000000,700.000000) scale(0.100000,-0.100000)"
fill="#000000" stroke="none">
<path d="M4725 6994 c-496 -52 -926 -246 -1268 -573 -346 -331 -552 -723 -634
-1206 -24 -144 -24 -481 1 -630 78 -474 280 -864 618 -1190 318 -309 687 -493
1143 -571 144 -25 481 -25 630 0 475 78 864 280 1190 618 168 173 269 315 373
523 96 192 154 369 194 593 29 165 32 500 5 657 -78 458 -260 821 -572 1143
-320 332 -701 533 -1160 612 -116 21 -419 34 -520 24z"/>
<path d="M1230 3840 c-313 -40 -598 -181 -820 -404 -198 -199 -319 -422 -381
-707 -33 -147 -33 -407 -1 -556 41 -189 105 -341 210 -503 72 -109 269 -308
377 -379 161 -106 342 -180 531 -218 123 -24 385 -24 508 0 280 56 508 174
709 367 128 123 213 237 286 385 109 220 145 378 145 625 0 238 -36 402 -134
605 -69 143 -139 243 -248 357 -208 216 -443 348 -730 408 -110 23 -348 34
-452 20z"/>
<path d="M4587 1740 c-337 -57 -602 -293 -704 -627 -23 -78 -26 -104 -26 -233
0 -173 18 -254 89 -396 168 -340 550 -535 922 -470 188 33 340 112 473 245
134 135 212 286 245 473 71 405 -160 807 -550 959 -132 51 -315 71 -449 49z"/>
</g>
</svg>
